<?xml version="1.0" encoding="utf-8"?>
<!-- Generator: Adobe Illustrator 19.1.0, SVG Export Plug-In . SVG Version: 6.00 Build 0)  -->
<!DOCTYPE svg PUBLIC "-//W3C//DTD SVG 1.1//EN" "http://www.w3.org/Graphics/SVG/1.1/DTD/svg11.dtd">
<svg version="1.1" id="Layer_1" xmlns:sketch="http://www.bohemiancoding.com/sketch/ns"
	 xmlns="http://www.w3.org/2000/svg" xmlns:xlink="http://www.w3.org/1999/xlink" x="0px" y="0px" viewBox="360 225 2000 351" xml:space="preserve">
<g id="Page-1" sketch:type="MSPage">
	<g id="Artboard" sketch:type="MSArtboardGroup" fill="none">
		<g id="Path-1" fill="none">
			<path id="path-1" fill="none" stroke="#FFF" stroke-linejoin="round" stroke-width="80" stroke-linecap="round" d="M415.2,375.3l-29.7,185.3l43.2-165.8l61.5-19.4l13.9,26l-7.2,44.5l-29.4,85.4l13.2-10.1
				L525.9,396l29.4-35.4l20.7,9l-3.4,32.7l-4.5,44.7l-13.6,20l-16.2,56.4l18.9,17.7l33.1-25.9l16.9-25.2l10.1-37.6l27.1-38.4
				l19.5-42.8l23-6.8l26-3l-82.7,94.7l-17.3,47.9l-2.3,42.1l11.7,9l31.9-4.5l11.7-29.4l15-30.1l12.4-54.5c0,0,4.4-10.9,6.6-16.3
				c5.3-13.2,16-39.7,16-39.7l-33.5,135.4l2.3,22.5l39.8-5.6l2.3-12.8l11.3-30.1l50.8-154.1l-16.1,80.1l-16.5,74.9l-5.2,54.8
				l24.8-66.9l28.6-27.4l30.1-34.9l36.5-18l-31.2,26.7l-17,25.6l-27,29.7l-12.1,25.2l7.9,12.8h49.2l29-7.9l49.4-24.3l36.8-28.9
				l19.3-36.3l25.6-38.3l11.2-28.2l-2-21.1l-20.3-7.1l-24.6,13l-13.9,18.7c0,0-26.4,24.3-26.4,34.2s-29.9,31.4-29.9,31.4l-1.5,52.8
				l-2,40.9l18,23.9l25.7,5.9l39.6-4l18.7-18.8l37.1-25.7l41.9-42.9l72.6-119.8l-20.3,69.6l-7.2,70l4.9,45.7l26.1,8.4l39.7-64.7
				l36.1-59l35.6-68.6l-23.7,96.7l-15.8,68l11.4,26.9l33.5-56.9l37.3-47.8l39.8-58.2l46-19.8l-90.9,58.9l30.2,28.7l50.6-23.3
				l26.1,12.4l-17.3,39.3l-24.4,24.2l-28.2,38.4l-24.3,29.7l-10.4,17l286.7-339.7l-37.3,331.6l38.6-238.6l65.8-21.3l29,4.9
				l17.7,34.7l-14.8,40.9l-37.8,44.2l-34.3,31.3l-122.7,66.3l44.2,41.9l112.7,3l-3.3-230.3l103.6,8.4l-43.6,199l27.7-165l21.9,12.8
				l31.7-36.8l31.7-17.7l1,93.4l27-27.2l45.9-53.1l44.4-1l14.5,23.2l-5.4,60.7l-19.3,45.9l-30.7,41.7l-45.9,21.4l-25.4-15.5l-1-45.9
				l9.4-45.2l22-31.7l137.5-19.1l19.8-35.5l-12.4,54.4l-9.4,50.2l-8.4,51.2l13.4,39.4l36.8-64.2l11.4-31.8l20.1-50l26.4-30.7
				l16-21.9l-12.4,60.2l-13.9,83v33l8.9,14.5l27.7-18.3l22.4-26.7l-65.4,35.1l53.2-238.1l74.2-21.8l32.8-1.5l12.7,30.8l-2.5,42.1
				l-32.7,20.3l-46.6,45.6l-15.8,61.9l2.2,38l24.7,26.9l45.4-14.8L2152,475l17-52l-36-213l195-64l5.1,97.7l-76.7,278.7l27.1,15.8
				l18.7-14.8l23.9-31.3l32.5-34.5"/>
		</g>
	</g>
</g>
</svg>
